<svg width="160" height="128" viewBox="0 0 160 128" fill="none" xmlns="http://www.w3.org/2000/svg">
<path d="M140.071 36.3613C148.724 36.3613 155.739 29.3465 155.739 20.6934C155.739 12.0402 148.724 5.02539 140.071 5.02539C131.418 5.02539 124.403 12.0402 124.403 20.6934C124.403 29.3465 131.418 36.3613 140.071 36.3613Z" fill="#889BAF"/>
<path d="M142.421 27.3521C142.16 27.3521 141.899 27.3521 141.638 27.2215C141.116 26.9604 140.724 26.4381 140.724 25.7853L140.855 16.9068C140.855 16.254 141.246 15.7317 141.769 15.4706C142.291 15.2094 142.944 15.2094 143.466 15.6011L149.211 20.0404C149.603 20.3015 149.864 20.8238 149.864 21.346C149.864 21.8683 149.603 22.26 149.211 22.6517L143.335 27.091C143.205 27.2215 142.813 27.3521 142.421 27.3521Z" fill="#242D36"/>
<path d="M157.437 23.8268C157.698 22.7823 157.698 21.7378 157.698 20.6932C157.698 15.9928 155.739 11.5536 152.083 8.28942C148.427 5.02526 143.596 3.19734 138.504 3.19734C136.415 3.19734 134.196 3.71958 132.629 4.11128L131.976 2.54451C131.193 0.586016 129.104 -0.458538 127.145 0.194293C126.231 0.585993 125.448 1.23882 124.926 2.15279C124.534 2.80562 124.534 3.58903 124.664 4.37243C123.881 4.1113 123.098 4.24187 122.445 4.50301C121.531 4.89471 120.747 5.54754 120.225 6.4615C119.442 8.28943 120.225 10.509 122.053 11.423L122.184 11.5536C120.356 14.2955 119.442 17.2985 119.181 20.6932C119.181 21.4766 119.181 22.3906 119.311 23.174C118.528 23.8268 118.006 24.8713 118.006 25.9159C118.006 26.3076 118.006 26.5687 118.136 26.9604C116.7 27.7438 115.786 29.3106 115.786 30.8774C115.786 33.3581 117.744 35.3166 120.225 35.3166H127.145C127.406 35.3166 127.537 35.3166 127.798 35.3166C128.973 35.9695 130.279 36.6223 131.584 37.014C131.454 37.4057 131.323 37.7974 131.323 38.1891C131.323 38.9725 131.584 39.7559 132.237 40.4088C132.89 41.0616 133.673 41.3227 134.457 41.3227C135.24 41.3227 136.024 41.0616 136.677 40.4088L136.938 40.1476C137.068 40.2782 137.068 40.4088 137.199 40.4088C137.852 41.0616 138.635 41.3227 139.418 41.3227C140.202 41.3227 140.985 41.0616 141.638 40.4088L144.249 37.7974C144.38 37.6669 144.641 37.4057 144.772 37.1446C144.902 37.1446 145.163 37.014 145.294 37.014C145.816 36.8835 146.077 36.2306 145.947 35.7084C145.816 35.1861 145.163 34.925 144.641 35.0555C142.683 35.7084 140.593 36.1 138.504 36.1H138.374C136.676 36.1 135.11 35.8389 133.543 35.4472C132.498 35.1861 131.584 34.7944 130.54 34.4027C132.498 33.2276 133.804 31.1385 133.804 28.6578C133.804 25.0019 130.801 22.1295 127.276 22.1295H121.792C121.661 22.1295 121.4 22.1295 121.27 22.1295C121.27 21.6072 121.139 21.0849 121.139 20.5627C121.139 17.4291 122.184 14.5566 124.012 11.9453L124.142 11.8147C125.056 10.509 126.231 9.46453 127.667 8.42C128.059 8.15886 128.19 7.50602 127.929 6.98376C127.667 6.72263 127.276 6.46147 126.884 6.59204C126.884 6.59204 127.015 6.46149 127.015 6.33093C127.145 6.06979 127.145 5.80865 127.015 5.54752L126.492 4.24186C126.362 3.71959 126.362 3.19731 126.623 2.67505C126.884 2.15278 127.276 1.89167 127.667 1.76111C128.581 1.36941 129.756 1.89166 130.018 2.93619L130.67 4.50301C129.887 4.76414 129.365 5.02526 129.234 5.02526C128.973 5.15583 128.842 5.28639 128.712 5.54752C128.581 5.80865 128.581 6.06979 128.712 6.33093C128.842 6.59206 128.973 6.72262 129.234 6.85318C129.495 6.98375 129.756 6.98375 130.018 6.85318C132.498 5.67809 135.371 5.02526 138.243 5.02526C147.775 5.02526 155.478 11.9453 155.478 20.5627C155.478 23.3045 154.695 25.9159 153.258 28.2661C151.822 30.4857 149.733 32.4442 147.383 33.7499C147.122 33.8804 146.991 34.1416 146.861 34.4027C146.73 34.6638 146.861 34.925 146.991 35.1861C147.122 35.4472 147.513 35.7084 147.905 35.7084C148.036 35.7084 148.297 35.7083 148.427 35.5778C148.558 35.4472 148.689 35.4472 148.95 35.3166H153.128C156.784 35.3166 159.656 32.3136 159.656 28.7883C159.656 26.8298 158.873 25.0019 157.437 23.8268ZM157.698 28.7883C157.698 31.2691 155.609 33.3581 153.128 33.3581H151.822C153.128 32.183 154.303 30.8774 155.217 29.4411C155.87 28.3966 156.392 27.2215 156.784 26.0465C157.437 26.8299 157.698 27.7438 157.698 28.7883ZM138.896 39.1031C138.766 38.9725 138.766 38.8419 138.635 38.7114L139.157 38.1891C139.941 38.1891 140.724 38.0585 141.507 37.928L140.463 38.9725C140.071 39.4948 139.288 39.4948 138.896 39.1031ZM123.489 9.98677L122.967 9.72566C122.053 9.33396 121.661 8.15883 122.053 7.24487C122.314 6.85317 122.575 6.46149 123.098 6.33093C123.359 6.20036 123.489 6.20035 123.75 6.20035C124.012 6.20035 124.273 6.20036 124.534 6.33093L125.84 6.98376C125.97 7.11433 126.231 7.11433 126.362 7.11433C125.839 7.50603 124.664 8.55054 123.489 9.98677ZM131.976 28.7883C131.976 31.2691 129.887 33.3581 127.406 33.3581H120.486C119.181 33.3581 118.006 32.183 118.006 30.8774C118.006 29.7023 118.789 28.7883 119.833 28.5272H122.967C123.489 28.5272 124.012 28.1355 124.012 27.4827C124.012 26.9604 123.62 26.4381 122.967 26.4381H120.356C120.225 26.3076 120.225 26.0464 120.225 25.9159C120.225 25.0019 121.009 24.2185 121.923 24.2185H127.145C127.276 24.2185 127.406 24.2185 127.406 24.2185C130.018 24.3491 131.976 26.3076 131.976 28.7883ZM133.543 38.1891C133.543 37.928 133.543 37.7974 133.673 37.5363C134.587 37.7974 135.501 37.928 136.415 37.928L135.501 38.8419C135.11 39.2336 134.326 39.2336 133.935 38.8419C133.673 38.8419 133.543 38.5808 133.543 38.1891Z" fill="white"/>
<path d="M137.852 12.9897C137.329 12.9897 136.807 13.3814 136.807 14.0343C136.807 14.2954 136.546 14.4259 136.415 14.4259C136.285 14.4259 136.024 14.1648 136.024 14.0343C136.024 13.512 135.632 12.9897 134.979 12.9897C134.326 12.9897 133.935 13.3814 133.935 14.0343C133.935 15.3399 134.979 16.515 136.415 16.515C137.852 16.515 138.896 15.4705 138.896 14.0343C138.766 13.512 138.374 12.9897 137.852 12.9897Z" fill="white"/>
<path d="M149.342 16.515C150.647 16.515 151.822 15.4705 151.822 14.0343C151.822 13.512 151.431 12.9897 150.778 12.9897C150.255 12.9897 149.733 13.3814 149.733 14.0343C149.733 14.2954 149.472 14.4259 149.342 14.4259C149.08 14.4259 148.95 14.1648 148.95 14.0343C148.95 13.512 148.558 12.9897 147.905 12.9897C147.383 12.9897 146.861 13.3814 146.861 14.0343C146.861 15.3399 147.905 16.515 149.342 16.515Z" fill="white"/>
<path d="M79.7496 127.451C123.737 127.451 159.395 123.769 159.395 119.226C159.395 114.683 123.737 111 79.7496 111C35.7626 111 0.104126 114.683 0.104126 119.226C0.104126 123.769 35.7626 127.451 79.7496 127.451Z" fill="#242D36"/>
<path d="M51.53 85.6465H43.7956V98.9619H30.5241V85.6465H3.10226V76.1982L31.2712 34.7139H43.7956V75.0996H51.53V85.6465ZM30.5241 75.0996V64.2012C30.5241 62.3848 30.5974 59.748 30.7439 56.291C30.8904 52.834 31.0075 50.8271 31.0954 50.2705H30.7439C29.6599 52.6729 28.3562 55.0166 26.8327 57.3018L15.0554 75.0996H30.5241ZM101.144 66.8379C101.144 78.0586 99.2986 86.3643 95.6071 91.7549C91.945 97.1455 86.2907 99.8408 78.6443 99.8408C71.2321 99.8408 65.6364 97.0576 61.8571 91.4912C58.1071 85.9248 56.2321 77.707 56.2321 66.8379C56.2321 55.5 58.0632 47.1504 61.7253 41.7891C65.3874 36.3984 71.0271 33.7031 78.6443 33.7031C86.0564 33.7031 91.6521 36.5156 95.4314 42.1406C99.24 47.7656 101.144 55.998 101.144 66.8379ZM69.7234 66.8379C69.7234 74.7188 70.3972 80.373 71.7448 83.8008C73.1218 87.1992 75.4216 88.8984 78.6443 88.8984C81.8083 88.8984 84.0935 87.1699 85.4997 83.7129C86.906 80.2559 87.6091 74.6309 87.6091 66.8379C87.6091 58.957 86.8913 53.3027 85.4558 49.875C84.0495 46.418 81.779 44.6895 78.6443 44.6895C75.4509 44.6895 73.1657 46.418 71.7888 49.875C70.4118 53.3027 69.7234 58.957 69.7234 66.8379ZM154.362 85.6465H146.628V98.9619H133.356V85.6465H105.934V76.1982L134.103 34.7139H146.628V75.0996H154.362V85.6465ZM133.356 75.0996V64.2012C133.356 62.3848 133.429 59.748 133.576 56.291C133.722 52.834 133.84 50.8271 133.927 50.2705H133.576C132.492 52.6729 131.188 55.0166 129.665 57.3018L117.887 75.0996H133.356Z" fill="white"/>
</svg>
