<?xml version="1.0" encoding="UTF-8" standalone="no"?>
<svg
   inkscape:export-ydpi="432"
   inkscape:export-xdpi="432"
   inkscape:export-filename="404_with.svg"
   inkscape:version="1.2.2 (732a01da63, 2022-12-09)"
   sodipodi:docname="404_TextAsVectror.svg"
   id="svg15"
   version="1.1"
   height="862.83807"
   width="1372.9678"
   viewBox="0 0 1280.0005 804.413"
   xmlns:inkscape="http://www.inkscape.org/namespaces/inkscape"
   xmlns:sodipodi="http://sodipodi.sourceforge.net/DTD/sodipodi-0.dtd"
   xmlns="http://www.w3.org/2000/svg"
   xmlns:svg="http://www.w3.org/2000/svg">
  <defs
     id="defs19" />
  <sodipodi:namedview
     id="namedview17"
     pagecolor="#ffffff"
     bordercolor="#000000"
     borderopacity="0.25"
     inkscape:showpageshadow="2"
     inkscape:pageopacity="0.0"
     inkscape:pagecheckerboard="0"
     inkscape:deskcolor="#d1d1d1"
     showgrid="false"
     inkscape:zoom="0.2043457"
     inkscape:cx="-469.79212"
     inkscape:cy="115.0012"
     inkscape:window-width="1920"
     inkscape:window-height="1016"
     inkscape:window-x="3832"
     inkscape:window-y="-8"
     inkscape:window-maximized="1"
     inkscape:current-layer="g13" />
  <g
     class="layer"
     id="g13"
     transform="translate(-13.635065,0.00240195)">
    <title
       id="title2">Layer 1</title>
    <path
       d="m 1134.5217,291.26988 c 70.7868,0 128.2345,-56.15193 128.2345,-125.52077 0,-69.288746 -57.4477,-125.440665 -128.2345,-125.440665 -70.7869,0 -128.2347,56.151919 -128.2347,125.440665 0,69.36884 57.4478,125.52077 128.2347,125.52077 z"
       fill="#a7b4c4"
       id="svg_1"
       style="stroke-width:8.0964" />
    <path
       d="m 1153.7527,219.09743 c -2.1276,0 -4.2553,0 -6.383,-1.04132 -4.2554,-2.08266 -7.5288,-6.24801 -7.5288,-11.45468 l 1.0638,-71.1311 c 0,-5.28677 3.2734,-9.45211 7.5288,-11.53477 4.2554,-2.08267 9.5746,-2.08267 13.9119,1.04133 l 46.973,35.56555 c 3.1915,2.08267 5.3192,6.248 5.3192,10.49344 0,4.16534 -2.1277,7.28934 -5.3192,10.41333 l -48.0369,35.56556 c -1.0638,1.04134 -4.3372,2.08266 -7.5288,2.08266 z"
       fill="#1c232b"
       id="svg_2"
       style="stroke-width:8.0964" />
    <path
       d="m 1276.6681,190.90133 c 2.1277,-8.41077 2.1277,-16.74145 2.1277,-25.15222 0,-37.64822 -16.0396,-73.213773 -45.991,-99.327219 -29.8695,-26.113446 -69.3956,-40.772221 -111.1312,-40.772221 -17.1034,0 -35.1888,4.165334 -48.0368,7.289335 l -5.3192,-12.576107 c -6.4649,-15.6200065 -23.5683,-24.0307792 -39.6079,-18.8241104 -7.4469,3.2041039 -13.83,8.4107726 -18.0854,15.7001084 -3.2734,5.286772 -3.2734,11.534774 -2.2096,17.782777 -6.383,-2.082668 -12.76612,-1.041334 -18.16721,1.041334 -7.44692,3.124 -13.83002,8.410772 -18.16723,15.700109 -6.3831,14.658775 0,32.44155 14.9757,39.730887 l 1.06385,1.041334 c -14.89388,22.028213 -22.42265,46.058993 -24.55034,73.213773 0,6.3281 0,13.61744 1.06384,19.86545 -6.38309,5.28677 -10.63847,13.61743 -10.63847,22.02821 0,3.12401 0,5.20667 1.06385,8.33068 -11.78418,6.24799 -19.2311,18.8241 -19.2311,31.4002 0,19.86544 15.95771,35.56556 36.25267,35.56556 h 56.62944 c 2.2095,0 3.2734,0 5.4011,0 9.5746,5.20667 20.2949,10.41334 30.9334,13.53734 -1.0638,3.20409 -2.1277,6.3281 -2.1277,9.4521 0,6.248 2.1277,12.57611 7.5288,17.78278 5.3192,5.20667 11.7023,7.28934 18.1672,7.28934 6.3831,0 12.7662,-2.08267 18.1673,-7.28934 l 2.1277,-2.08266 c 1.0638,1.04132 1.0638,2.08266 2.1277,2.08266 5.3192,5.20667 11.7023,7.28934 18.1672,7.28934 6.3831,0 12.848,-2.08267 18.1673,-7.28934 l 21.3587,-20.90678 c 1.0639,-1.04132 3.1916,-3.12401 4.2554,-5.28677 1.0639,0 3.1916,-1.04133 4.2554,-1.04133 4.3373,-1.04134 6.465,-6.24801 5.4011,-10.41334 -1.0638,-4.16534 -6.4649,-6.32811 -10.7203,-5.20667 -16.0396,5.20667 -33.1429,8.33068 -50.2464,8.33068 h -1.0638 c -13.83,0 -26.678,-2.08268 -39.5261,-5.20667 -8.5107,-2.08268 -16.0395,-5.28677 -24.5503,-8.41078 16.0396,-9.372 26.678,-26.11345 26.678,-45.97889 0,-29.31755 -24.5503,-52.307 -53.356,-52.307 h -44.92713 c -1.06385,0 -3.19155,0 -4.2554,0 0,-4.16533 -1.06385,-8.41077 -1.06385,-12.5761 0,-25.07212 8.51079,-48.06156 23.48648,-68.968339 l 1.0639,-1.121436 c 7.5287,-10.413339 17.1034,-18.824111 28.8875,-27.15478 3.1916,-2.082668 4.2554,-7.289337 2.1277,-11.534775 -2.1277,-2.082668 -5.3192,-4.165334 -8.5926,-3.124 0,0 1.1457,-1.041334 1.1457,-2.082668 0.982,-2.082668 0.982,-4.165335 0,-6.248003 l -4.3372,-10.49344 c -1.0639,-4.165335 -1.0639,-8.330669 1.0638,-12.496006 2.1277,-4.245437 5.4011,-6.328104 8.5926,-7.369438 7.447,-3.124001 17.1034,1.041334 19.2311,9.452107 l 5.3193,12.496005 c -6.3831,2.082668 -10.6385,4.245438 -11.7842,4.245438 -2.1277,1.041334 -3.1915,2.082666 -4.2554,4.165334 -1.0638,2.082668 -1.0638,4.165335 0,6.248003 1.0639,2.082668 2.1277,3.124 4.2554,4.165334 2.2095,1.041334 4.3372,1.041334 6.4649,0 20.295,-9.372003 43.7815,-14.578671 67.2679,-14.578671 78.0701,0 141.0826,55.430996 141.0826,124.399335 0,21.9481 -6.4649,42.93499 -18.1672,61.75909 -11.7842,17.78278 -28.8876,33.40279 -48.1187,43.89623 -2.1277,1.04134 -3.1915,3.12401 -4.2554,5.20667 -1.0638,2.08267 0,4.16533 1.0639,6.3281 1.0638,2.08268 4.2554,4.16534 7.5288,4.16534 1.0638,0 3.1915,0 4.2554,-1.04134 1.0638,-1.04132 2.1277,-1.04132 4.2554,-2.08266 h 34.2068 c 29.8695,0 53.4379,-24.11088 53.4379,-52.30699 0,-15.70012 -6.465,-30.35889 -18.1673,-39.73089 z m 2.1277,39.73089 c 0,19.86544 -17.1034,36.60687 -37.3983,36.60687 h -10.7204 c 10.7204,-9.4521 20.295,-19.86544 27.8238,-31.4002 5.3192,-8.33068 9.5746,-17.78278 12.7661,-27.1548 5.4011,6.24801 7.5288,13.53735 7.5288,21.94813 z m -153.8488,82.58577 c -1.0638,-1.04134 -1.0638,-2.08266 -2.2095,-3.12401 l 4.3372,-4.16533 c 6.3831,0 12.7662,-1.04134 19.2311,-2.08266 l -8.5926,8.33066 c -3.1915,4.16535 -9.5746,4.16535 -12.7662,1.04134 z M 998.84012,80.039332 994.58473,77.956664 c -7.52877,-3.204104 -10.72031,-12.576107 -7.52877,-19.945546 2.12768,-3.124002 4.33722,-6.248002 8.59262,-7.289336 2.1277,-1.041334 3.19154,-1.041334 5.31922,-1.041334 2.1277,0 4.2554,0 6.3831,1.041334 l 10.7203,5.206668 c 1.0639,1.041334 3.1916,1.041334 4.2554,1.041334 -4.2554,3.204104 -13.9119,11.534773 -23.48648,23.069548 z m 69.47748,150.592888 c 0,19.86544 -17.1034,36.60687 -37.3984,36.60687 h -56.62942 c -10.72031,0 -20.29494,-9.4521 -20.29494,-19.86544 0,-9.4521 6.38308,-16.74143 14.89387,-18.8241 h 25.69602 c 4.25539,0 8.51077,-3.124 8.51077,-8.41078 0,-4.16532 -3.19153,-8.33067 -8.51077,-8.33067 h -21.3588 c -1.14567,-1.04132 -1.14567,-3.12401 -1.14567,-4.16533 0,-7.36944 6.46491,-13.61745 13.91185,-13.61745 h 42.71759 c 1.1457,0 2.2095,0 2.2095,0 21.3588,1.04134 37.3984,16.74146 37.3984,36.6069 z m 12.7661,75.29643 c 0,-2.08266 0,-3.124 1.0639,-5.20667 7.5288,2.08267 14.9757,3.12401 22.4226,3.12401 l -7.4469,7.28934 c -3.1915,3.124 -9.5746,3.124 -12.7662,0 -2.2095,0 -3.2734,-2.08267 -3.2734,-5.20668 z"
       fill="#242d36"
       id="svg_3"
       style="stroke-width:8.0964" />
    <path
       d="m 1116.3544,104.07011 c -4.2554,0 -8.5108,3.124 -8.5108,8.33067 0,2.16277 -2.1277,3.2041 -3.2734,3.2041 -1.0638,0 -3.1915,-2.08266 -3.1915,-3.2041 0,-4.16533 -3.1916,-8.33067 -8.5108,-8.33067 -5.3192,0 -8.5108,3.124 -8.5108,8.33067 0,10.49344 8.5108,19.94555 20.2131,19.94555 11.7842,0 20.3768,-8.41077 20.3768,-19.94555 -1.0638,-4.16533 -4.3372,-8.33067 -8.5926,-8.33067 z"
       fill="#242d36"
       id="svg_4"
       style="stroke-width:8.0964" />
    <path
       d="m 1210.3822,132.34633 c 10.7203,0 20.2949,-8.41077 20.2949,-19.94555 0,-4.16533 -3.1915,-8.33067 -8.5107,-8.33067 -4.3373,0 -8.5927,3.124 -8.5927,8.33067 0,2.16277 -2.1276,3.2041 -3.1915,3.2041 -2.1277,0 -3.1915,-2.08266 -3.1915,-3.2041 0,-4.16533 -3.1916,-8.33067 -8.5108,-8.33067 -4.3373,0 -8.5927,3.124 -8.5927,8.33067 0,10.49344 8.5927,19.94555 20.295,19.94555 z"
       fill="#242d36"
       id="svg_5"
       style="stroke-width:8.0964" />
    <path
       d="M 409.95934,686.09558 H 346.70131 V 792.71213 H 238.02516 V 686.09558 H 13.635065 V 610.39862 L 244.16273,278.05294 h 102.53858 v 323.53439 h 63.25803 z M 238.02516,601.58733 V 514.2755 c 0,-14.57867 0.65467,-35.64564 1.80036,-63.36115 1.22751,-27.71549 2.20952,-43.73601 2.94602,-48.22176 h -2.94602 c -8.83814,19.22463 -19.47661,38.04873 -31.99728,56.31213 l -96.31916,142.58261 z m 577.91495,-66.16474 c 0,89.87512 -15.05755,156.36027 -45.25446,199.53557 -30.03326,43.2554 -76.26971,64.80299 -138.87308,64.80299 -60.63934,0 -106.38481,-22.26851 -137.31823,-66.88566 -30.68792,-44.61714 -46.07279,-110.38138 -46.07279,-197.4529 0,-90.83635 14.97571,-157.72201 45.00894,-200.657 29.95142,-43.1753 76.10605,-64.803 138.38208,-64.803 60.72117,0 106.46662,22.58892 137.40006,67.6066 31.17893,45.09775 46.72748,111.02219 46.72748,197.8534 z m -257.12388,0 c 0,63.12085 5.56474,108.37881 16.53056,135.854 11.29315,27.23489 30.11509,40.85233 56.46578,40.85233 25.94152,0 44.59978,-13.85776 56.13843,-41.57325 11.53866,-27.6354 17.26707,-72.73316 17.26707,-135.13308 0,-63.12084 -5.89207,-108.45891 -17.59441,-135.85401 -11.53866,-27.71549 -30.11507,-41.57324 -55.81109,-41.57324 -26.10519,0 -44.76344,13.85775 -56.0566,41.57324 -11.29316,27.3951 -16.93974,72.73317 -16.93974,135.85401 z m 692.64687,150.67299 h -63.258 V 792.71213 H 1079.6107 V 686.09558 H 855.1388 v -75.69696 l 230.5277,-332.34568 h 102.5386 v 323.53439 h 63.258 z M 1079.6107,601.58733 V 514.2755 c 0,-14.57867 0.5729,-35.64564 1.8004,-63.36115 1.1457,-27.71549 2.1277,-43.73601 2.8642,-48.22176 h -2.8642 c -8.92,19.22463 -19.5584,38.04873 -32.0791,56.31213 l -96.31918,142.58261 z"
       fill="#242d36"
       id="svg_7"
       style="stroke-width:8.0964" />
  </g>
</svg>
